<?xml version="1.0" standalone="no"?>
<!DOCTYPE svg PUBLIC "-//W3C//DTD SVG 20010904//EN"
 "http://www.w3.org/TR/2001/REC-SVG-20010904/DTD/svg10.dtd">
<svg version="1.0" xmlns="http://www.w3.org/2000/svg"
 width="700.000000pt" height="700.000000pt" viewBox="0 0 700.000000 700.000000"
 preserveAspectRatio="xMidYMid meet">
<metadata>
Created by potrace 1.11, written by Peter Selinger 2001-2013
</metadata>
<g transform="translate(0.000000,700.000000) scale(0.100000,-0.100000)"
fill="#000000" stroke="none">
<path d="M3295 6994 c-421 -32 -742 -103 -1090 -241 -915 -362 -1651 -1123
-1989 -2057 -270 -743 -282 -1532 -36 -2276 118 -358 265 -649 483 -955 264
-371 651 -728 1044 -964 1018 -610 2264 -663 3328 -141 706 346 1261 902 1605
1605 372 760 454 1585 240 2410 -221 853 -761 1595 -1510 2076 -436 279 -956
463 -1485 524 -127 15 -491 27 -590 19z m1599 -1109 c110 -23 189 -66 267
-144 l69 -69 0 -78 c-1 -127 -40 -190 -127 -201 -64 -7 -115 28 -235 162 -124
138 -179 175 -259 175 -89 0 -154 -40 -244 -150 -140 -172 -159 -219 -334
-840 -55 -195 -114 -400 -130 -455 -17 -54 -29 -100 -28 -100 1 -1 216 -33
477 -70 261 -38 476 -69 478 -71 5 -3 -60 -248 -68 -257 -4 -4 -54 -1 -111 8
-57 8 -264 40 -459 69 -195 30 -356 53 -356 53 -3 -5 -103 -551 -101 -553 1
-2 218 -33 482 -69 264 -37 487 -70 496 -73 14 -6 12 -21 -18 -132 -19 -68
-36 -126 -38 -129 -3 -2 -218 26 -478 63 -259 37 -479 67 -488 66 -13 0 -27
-41 -64 -192 -67 -268 -100 -377 -200 -648 -196 -534 -281 -703 -426 -849
-192 -193 -466 -296 -738 -278 -225 14 -441 152 -441 282 0 59 26 127 62 164
34 35 74 40 154 20 51 -13 117 -79 165 -164 102 -181 279 -209 430 -68 97 90
188 244 243 408 28 83 126 468 216 845 108 455 127 560 98 560 -15 0 -889 130
-904 135 -8 2 -6 41 6 129 9 69 19 128 22 132 3 3 219 -26 479 -64 261 -38
476 -68 478 -66 3 3 120 511 121 526 0 10 -59 20 -535 94 -242 37 -444 71
-449 75 -9 8 17 265 27 276 5 4 92 -7 747 -96 151 -21 278 -35 281 -32 4 3 34
98 68 211 145 480 191 609 273 760 141 259 365 492 552 575 63 28 148 54 214
65 79 13 253 10 326 -5z"/>
</g>
</svg>
